<!DOCTYPE svg PUBLIC "-//W3C//DTD SVG 1.1//EN" "http://www.w3.org/Graphics/SVG/1.1/DTD/svg11.dtd">

<!-- Uploaded to: SVG Repo, www.svgrepo.com, Transformed by: SVG Repo Mixer Tools -->
<svg width="800px" height="800px" viewBox="-28.32 -28.32 104.64 104.64" xmlns="http://www.w3.org/2000/svg" fill="#00a3e0" stroke="#00a3e0" stroke-width="2.448">

<g id="SVGRepo_bgCarrier" stroke-width="0" transform="translate(0,0), scale(1)">

<rect x="-28.32" y="-28.32" width="104.64" height="104.64" rx="52.32" fill="#f5f5f7" strokewidth="0"/>

</g>

<g id="SVGRepo_tracerCarrier" stroke-linecap="round" stroke-linejoin="round"/>

<g id="SVGRepo_iconCarrier">

<defs>

<style>.a{fill:none;stroke:#00a3e0;stroke-linecap:round;stroke-linejoin:round;}</style>

</defs>

<path class="a" d="M18.71,30.64a4.76,4.76,0,0,0,4.16,1.86h2.52a4.24,4.24,0,0,0,4.24-4.25h0A4.24,4.24,0,0,0,25.39,24H22.61a4.24,4.24,0,0,1-4.24-4.25h0a4.24,4.24,0,0,1,4.24-4.25h2.52a4.76,4.76,0,0,1,4.16,1.86"/>

<circle class="a" cx="24" cy="24" r="17.55"/>

<path class="a" d="M20.43,6.81A9.75,9.75,0,0,0,6.62,20.16"/>

<path class="a" d="M27.57,41.19A9.75,9.75,0,0,0,41.19,27.57"/>

</g>

</svg>