<?xml version="1.0" encoding="UTF-8"?><svg id="Layer_3" xmlns="http://www.w3.org/2000/svg" viewBox="0 0 189.69 189.69"><defs><style>.cls-1{fill:#00e5ff;}.cls-2{fill:#006aff;}.cls-3{fill:#ff5427;}</style></defs><path class="cls-2" d="M16.17,163.96l29.54-4.54s9.09,29.53,9.09,27.26,45.44-74.98,45.44-74.98l-38.62-22.72L16.17,163.96Z"/><path class="cls-2" d="M173.52,163.96l-29.54-4.54s-9.09,29.53-9.09,27.26-45.44-74.98-45.44-74.98l38.62-22.72,45.44,74.98Z"/><path class="cls-3" d="M94.84,119.6c32.23,0,58.36-26.13,58.36-58.36S127.07,2.88,94.84,2.88,36.49,29.01,36.49,61.24s26.13,58.36,58.36,58.36"/><path class="cls-1" d="M94.84,92.49c17.26,0,31.25-13.99,31.25-31.25s-13.99-31.25-31.25-31.25-31.25,13.99-31.25,31.25,13.99,31.25,31.25,31.25"/></svg>