<?xml version="1.0" encoding="UTF-8" standalone="no"?>
<!DOCTYPE svg PUBLIC "-//W3C//DTD SVG 1.1//EN" "http://www.w3.org/Graphics/SVG/1.1/DTD/svg11.dtd">
<svg xmlns="http://www.w3.org/2000/svg" xmlns:xlink="http://www.w3.org/1999/xlink" xmlns:serif="http://www.serif.com/" width="100%" height="100%" viewBox="0 0 2287 389" version="1.1" xml:space="preserve" style="fill-rule:evenodd;clip-rule:evenodd;stroke-linejoin:round;stroke-miterlimit:2;">
    <g transform="matrix(1,0,0,1,-563.376,-991.045)">
        <g id="Layer-1" serif:id="Layer 1" transform="matrix(4.16667,0,0,4.16667,0,0)">
            <g transform="matrix(1,0,0,1,477.223,313.667)">
                <path d="M0,-59.561C-0.843,-57.355 -1.714,-55.159 -2.524,-52.941C-7.488,-39.366 -12.443,-25.787 -17.393,-12.207C-20.651,-3.265 -23.896,5.683 -27.148,14.627C-27.484,15.553 -27.987,16.064 -29.141,16.039C-33.16,15.953 -37.182,16.001 -41.203,16.009C-42.033,16.011 -42.526,15.916 -42.911,14.893C-47.055,3.865 -51.343,-7.107 -55.516,-18.124C-59.265,-28.025 -62.916,-37.964 -66.618,-47.883C-67.95,-51.45 -69.298,-55.011 -70.664,-58.565C-70.776,-58.857 -71.084,-59.075 -71.646,-59.728L-71.646,16.002C-76.33,16.002 -80.761,16.034 -85.189,15.947C-85.583,15.939 -86.036,15.205 -86.32,14.725C-86.48,14.453 -86.351,14.011 -86.351,13.646L-86.351,-72.99C-86.351,-75.769 -86.349,-75.769 -83.53,-75.769C-77.621,-75.769 -71.71,-75.731 -65.802,-75.801C-64.597,-75.815 -64.09,-75.316 -63.69,-74.311C-60.324,-65.852 -56.917,-57.408 -53.545,-48.952C-49.71,-39.335 -45.911,-29.704 -42.07,-20.089C-39.775,-14.342 -37.435,-8.611 -35.096,-2.881C-34.994,-2.634 -34.713,-2.46 -34.271,-1.994C-33.78,-3.277 -33.363,-4.335 -32.969,-5.402C-28.903,-16.393 -24.854,-27.389 -20.774,-38.375C-16.51,-49.862 -12.201,-61.334 -7.945,-72.825C-6.862,-75.748 -6.921,-75.769 -3.816,-75.769C1.728,-75.769 7.273,-75.703 12.815,-75.808C14.533,-75.841 14.968,-75.307 14.965,-73.631C14.917,-44.874 14.931,-16.118 14.931,12.64C14.931,16.006 14.931,16.006 11.626,16.006C8.52,16.006 5.412,16.011 2.305,16.003C1.137,16 0.292,16.28 0.497,14.216C0.859,10.559 0.669,-56.386 0.669,-59.426C0.445,-59.471 0.223,-59.516 0,-59.561" style="fill:#f1f1f1;fill-rule:nonzero;"/>
            </g>
            <g transform="matrix(1,0,0,1,621.357,317.507)">
                <path d="M0,-67.543C-0.069,-67.134 -0.124,-66.96 -0.124,-66.785C-0.131,-57.83 -0.111,-48.874 -0.157,-39.918C-0.164,-38.594 0.353,-38.247 1.577,-38.277C12.495,-38.547 23.426,-38.541 34.326,-39.12C40.199,-39.433 43.47,-41.771 45.549,-47.75C46.761,-51.235 46.597,-54.872 45.718,-58.413C44.72,-62.43 42.411,-65.487 38.261,-66.567C35.964,-67.165 33.533,-67.471 31.158,-67.501C22.569,-67.608 13.979,-67.543 5.389,-67.543L0,-67.543ZM44.415,-30.156C47.325,-28.143 50.13,-26.507 52.572,-24.442C56.257,-21.325 57.846,-16.907 58.666,-12.338C59.448,-7.984 59.593,-3.52 60.23,0.866C60.768,4.557 60.178,8.478 62.599,12.012C61.883,12.08 61.439,12.159 60.996,12.16C56.976,12.17 52.953,12.108 48.935,12.197C47.586,12.228 46.855,11.765 46.673,10.481C46.284,7.764 45.857,5.047 45.585,2.315C44.975,-3.813 44.487,-9.955 41.562,-15.56C38.672,-21.098 33.917,-24.21 27.998,-25.451C18.785,-27.381 9.419,-26.359 -0.135,-26.623L-0.135,-24.556C-0.135,-13.104 -0.135,-1.65 -0.136,9.802C-0.136,12.164 -0.138,12.165 -2.571,12.165C-6.697,12.166 -10.822,12.166 -15.126,12.166L-15.126,10.216C-15.126,-18.964 -15.108,-48.144 -15.167,-77.323C-15.171,-79.207 -14.617,-79.658 -12.794,-79.649C1.765,-79.577 16.327,-79.771 30.883,-79.533C37.138,-79.431 43.456,-78.79 49.311,-76.246C53.334,-74.498 56.49,-71.49 58.595,-67.719C63.179,-59.51 63.483,-50.867 59.756,-42.303C57.379,-36.842 52.815,-33.447 47.29,-31.348C46.322,-30.981 45.377,-30.557 44.415,-30.156" style="fill:#f1f1f1;fill-rule:nonzero;"/>
            </g>
            <g transform="matrix(1,0,0,1,138.669,238.169)">
                <path d="M0,91.504L0,79.804L2.042,79.804C13.495,79.804 24.949,79.898 36.399,79.753C40.531,79.701 44.671,79.202 48.778,78.681C54.093,78.005 58.149,72.948 58.451,67.55C58.639,64.172 58.497,60.901 56.936,57.846C55.105,54.26 52.094,52.326 48.112,52.036C44.977,51.807 41.829,51.767 38.686,51.65C32.033,51.403 25.344,51.502 18.736,50.817C12.525,50.174 6.55,48.446 2.095,43.448C-0.662,40.355 -2.317,36.784 -2.979,32.769C-3.811,27.724 -3.628,22.698 -1.905,17.829C1.199,9.057 7.303,3.386 16.324,1.279C20.552,0.291 24.989,-0.14 29.34,-0.204C42.191,-0.392 55.047,-0.238 67.9,-0.309C69.668,-0.319 70.259,0.181 70.15,1.951C70.008,4.257 70.115,6.579 70.115,8.893C70.115,11.795 70.115,11.795 67.303,11.795C53.962,11.795 40.62,11.72 27.28,11.837C22.924,11.876 18.566,12.605 15.538,16.197C14.357,17.598 13.612,19.457 13,21.222C12.078,23.878 12.249,26.671 12.931,29.355C14.158,34.188 17.916,36.163 22.359,36.994C30.868,38.585 39.496,37.917 48.079,38.167C54.406,38.351 60.736,39.22 65.664,43.677C67.964,45.757 69.965,48.394 71.412,51.141C73.965,55.987 74.789,61.354 74.489,66.831C74.151,73.015 72.502,78.811 68.12,83.36C64.44,87.18 59.797,89.361 54.533,90.463C47.687,91.896 40.796,91.438 33.916,91.484C23.316,91.558 12.716,91.504 2.117,91.504L0,91.504Z" style="fill:#f1f1f1;fill-rule:nonzero;"/>
            </g>
            <g transform="matrix(1,0,0,1,566.155,273.824)">
                <path d="M0,19.931C-5.437,5.246 -10.815,-9.284 -16.194,-23.814L-16.672,-23.775C-22.33,-9.27 -27.988,5.234 -33.722,19.931L0,19.931ZM-63.949,55.844C-62.972,53.524 -62.086,51.462 -61.232,49.388C-56.929,38.93 -52.658,28.458 -48.326,18.012C-44.563,8.937 -40.705,-0.098 -36.944,-9.173C-33.64,-17.145 -30.397,-25.142 -27.158,-33.139C-26.035,-35.909 -26.076,-35.926 -22.949,-35.926C-18.014,-35.926 -13.079,-35.908 -8.145,-35.939C-6.977,-35.946 -6.396,-35.601 -5.915,-34.386C-1.183,-22.434 3.697,-10.54 8.457,1.402C11.761,9.691 14.902,18.044 18.189,26.339C21.917,35.746 25.727,45.12 29.495,54.511C29.643,54.878 29.747,55.262 29.94,55.846C24.814,55.846 19.893,55.877 14.973,55.792C14.543,55.785 13.936,55.099 13.734,54.598C11.275,48.468 8.875,42.315 6.466,36.165C5.944,34.833 5.449,33.492 4.915,32.082L-1.538,32.082C-13.297,32.082 -25.055,32.095 -36.813,32.063C-37.968,32.06 -38.502,32.296 -38.982,33.543C-41.719,40.653 -44.627,47.696 -47.528,54.741C-47.717,55.198 -48.325,55.79 -48.747,55.796C-53.72,55.87 -58.695,55.844 -63.949,55.844" style="fill:#f1f1f1;fill-rule:nonzero;"/>
            </g>
            <g transform="matrix(1,0,0,1,304.581,298.666)">
                <path d="M0,-28.33C0,-18.34 0.133,-8.347 -0.061,1.64C-0.147,6.103 -0.774,10.579 -2.639,14.744C-5.034,20.093 -9.035,23.9 -14.107,26.706C-19.072,29.453 -24.343,31.261 -29.995,31.71C-34.99,32.107 -40.017,32.551 -45.012,32.392C-52.106,32.166 -59.028,30.821 -65.021,26.62C-71.773,21.886 -76.132,15.515 -77.09,7.256C-77.777,1.336 -78.141,-4.648 -78.196,-10.608C-78.343,-26.567 -78.214,-42.529 -78.289,-58.489C-78.298,-60.382 -77.729,-60.881 -75.907,-60.809C-72.44,-60.669 -68.96,-60.681 -65.493,-60.805C-63.752,-60.867 -63.21,-60.363 -63.216,-58.569C-63.279,-39.747 -63.313,-20.923 -63.208,-2.1C-63.187,1.828 -62.723,5.78 -61.196,9.498C-58.822,15.277 -54.207,18.335 -48.38,19.63C-41.689,21.117 -34.878,21.206 -28.309,19.222C-21.271,17.096 -16.223,12.749 -15.361,4.873C-15.047,2.007 -14.668,-0.873 -14.658,-3.748C-14.594,-22.023 -14.601,-40.299 -14.665,-58.574C-14.671,-60.374 -14.118,-60.867 -12.384,-60.804C-8.977,-60.682 -5.56,-60.686 -2.152,-60.803C-0.489,-60.86 0.053,-60.401 0.039,-58.666C-0.041,-48.555 0,-38.442 0,-28.33" style="fill:#f1f1f1;fill-rule:nonzero;"/>
            </g>
            <g transform="matrix(1,0,0,1,380.556,250.095)">
                <path d="M0,67.512L0,79.492C-0.615,79.522 -1.201,79.575 -1.787,79.575C-10.559,79.579 -19.337,79.793 -28.1,79.512C-35.461,79.276 -42.591,77.763 -48.483,72.843C-53.099,68.989 -56.189,64.127 -57.279,58.183C-57.871,54.95 -58.357,51.646 -58.375,48.37C-58.475,29 -58.424,9.629 -58.424,-9.742C-58.424,-12.196 -58.422,-12.196 -55.896,-12.196C-52.545,-12.197 -49.193,-12.121 -45.846,-12.23C-44.25,-12.281 -43.761,-11.797 -43.766,-10.174C-43.818,7.857 -43.899,25.889 -43.724,43.918C-43.683,48.131 -43.022,52.408 -42.076,56.525C-41.001,61.195 -37.491,64.14 -33.121,65.576C-29.82,66.661 -26.256,67.304 -22.783,67.429C-15.267,67.699 -7.733,67.512 0,67.512" style="fill:#f1f1f1;fill-rule:nonzero;"/>
            </g>
        </g>
    </g>
</svg>